<?xml version="1.0" standalone="no"?>
<!DOCTYPE svg PUBLIC "-//W3C//DTD SVG 20010904//EN"
 "http://www.w3.org/TR/2001/REC-SVG-20010904/DTD/svg10.dtd">
<svg version="1.0" xmlns="http://www.w3.org/2000/svg"
 width="16.000000pt" height="16.000000pt" viewBox="0 0 16.000000 16.000000"
 preserveAspectRatio="xMidYMid meet">
<metadata>
Created by potrace 1.11, written by Peter Selinger 2001-2013
</metadata>
<g transform="translate(0.000000,16.000000) scale(0.002286,-0.002286)"
fill="#000000" stroke="none">
<path d="M3298 6995 c-2 -1 -41 -5 -88 -9 -100 -7 -225 -22 -295 -36 -27 -5
-61 -12 -75 -14 -429 -78 -857 -251 -1250 -504 -81 -52 -319 -227 -330 -243
-3 -3 -25 -23 -50 -44 -85 -70 -220 -205 -361 -361 -210 -232 -452 -626 -585
-952 -62 -151 -146 -411 -169 -520 -2 -9 -8 -37 -14 -62 -11 -49 -13 -63 -35
-195 -34 -204 -40 -302 -40 -570 0 -233 11 -378 39 -545 6 -32 24 -129 29
-155 30 -151 112 -425 177 -587 48 -122 139 -311 196 -406 24 -41 43 -76 43
-78 0 -2 33 -55 73 -117 480 -736 1212 -1264 2054 -1482 72 -19 142 -36 155
-39 13 -2 50 -9 83 -15 33 -6 71 -13 85 -16 14 -3 52 -8 85 -11 33 -3 63 -8
66 -9 15 -10 227 -20 409 -20 188 0 341 8 430 21 144 21 295 48 345 61 33 8
67 16 75 18 109 22 388 117 549 187 121 53 308 148 353 179 14 11 29 19 33 19
24 0 383 257 495 355 119 104 294 279 365 365 21 25 41 47 44 50 4 3 45 55 91
115 332 436 547 915 654 1456 14 70 28 155 32 190 3 35 8 67 10 70 9 17 19
214 18 399 0 188 -6 331 -19 420 -3 19 -7 56 -10 81 -3 25 -7 54 -9 65 -2 10
-11 60 -21 109 -68 364 -194 706 -395 1070 -53 97 -213 333 -289 427 -65 81
-68 87 -48 94 12 3 39 19 60 36 31 24 41 27 53 17 8 -7 13 -18 10 -25 -5 -12
28 -54 42 -54 17 0 72 67 67 81 -8 22 -43 41 -51 28 -4 -7 -13 -4 -25 7 -19
17 -19 19 33 71 48 49 53 51 69 37 10 -9 15 -22 12 -30 -3 -8 5 -23 18 -33
l24 -20 37 37 38 36 -22 23 c-13 14 -29 21 -38 18 -10 -3 -23 2 -30 10 -12 14
-6 23 38 67 44 45 53 50 67 38 9 -7 14 -19 11 -26 -5 -12 28 -54 42 -54 5 0
23 16 42 35 l34 35 -23 24 c-13 14 -29 22 -37 19 -8 -3 -21 0 -30 8 -13 11
-10 18 28 56 l43 43 -231 231 -232 231 -42 -42 c-40 -40 -42 -41 -61 -24 -11
10 -18 26 -16 35 3 10 -6 27 -19 40 l-25 23 -36 -36 -36 -36 19 -26 c11 -14
25 -23 33 -20 8 2 25 -5 37 -17 l24 -22 -50 -49 c-27 -26 -53 -48 -58 -48 -17
0 -42 37 -36 53 7 18 -17 47 -38 47 -8 0 -28 -15 -46 -33 l-32 -33 21 -23 c12
-12 27 -20 34 -17 7 2 23 -6 35 -19 l21 -23 -51 -52 -51 -52 -25 23 c-18 17
-21 25 -12 36 6 7 9 15 7 16 -2 1 -14 11 -27 21 -22 19 -23 19 -57 -14 -19
-19 -35 -39 -35 -45 0 -12 41 -40 54 -37 5 2 19 -7 32 -19 l23 -22 -30 -31
c-16 -17 -32 -41 -35 -53 -4 -13 -10 -23 -15 -23 -5 0 -46 30 -91 66 -405 324
-931 571 -1445 679 -99 20 -244 43 -393 60 -54 7 -526 16 -532 10z"/>
</g>
</svg>
